<?xml version="1.0" standalone="no"?>
<!DOCTYPE svg PUBLIC "-//W3C//DTD SVG 20010904//EN"
 "http://www.w3.org/TR/2001/REC-SVG-20010904/DTD/svg10.dtd">
<svg version="1.0" xmlns="http://www.w3.org/2000/svg"
 width="64.000000pt" height="72.000000pt" viewBox="0 0 64.000000 72.000000"
 preserveAspectRatio="xMidYMid meet">
<metadata>
Created by potrace 1.10, written by Peter Selinger 2001-2011
</metadata>
<g transform="translate(0.000000,72.000000) scale(0.100000,-0.100000)"
fill="#000000" stroke="none">
<path d="M276 694 c-9 -8 -16 -22 -16 -29 0 -35 53 -58 78 -33 25 25 2 78 -33
78 -7 0 -21 -7 -29 -16z"/>
<path d="M414 591 c3 -5 19 -11 35 -14 17 -4 40 -16 51 -27 69 -69 -60 -228
-201 -247 -35 -5 -40 -9 -35 -27 3 -12 6 -27 6 -33 0 -19 19 -16 87 16 172 82
254 260 145 314 -33 17 -95 30 -88 18z"/>
<path d="M136 575 c-22 -7 -49 -24 -60 -36 l-21 -21 25 13 c89 46 255 11 358
-75 16 -15 32 -26 35 -26 5 0 27 57 27 71 0 13 -94 58 -157 74 -71 19 -155 19
-207 0z"/>
<path d="M94 510 c-54 -21 -79 -96 -51 -148 12 -20 13 -17 12 29 0 45 4 54 28
73 61 45 196 8 271 -74 l35 -39 27 23 27 23 -55 41 c-89 68 -223 101 -294 72z"/>
<path d="M573 466 c-1 -45 -27 -96 -74 -150 -42 -47 -135 -110 -181 -121 -34
-9 -35 -16 -4 -52 l25 -28 37 20 c56 30 157 134 184 190 25 51 39 158 23 168
-5 3 -9 -9 -10 -27z"/>
<path d="M103 453 c-20 -7 -16 -112 7 -185 33 -106 84 -172 158 -199 24 -9 24
-7 -10 21 -20 17 -49 56 -65 88 -26 52 -28 66 -28 169 l0 113 -25 -1 c-14 0
-31 -3 -37 -6z"/>
<path d="M206 428 c-14 -52 -6 -177 14 -232 26 -68 77 -116 124 -116 36 0 79
28 98 63 9 17 3 14 -26 -11 -21 -18 -48 -32 -62 -32 -36 0 -77 45 -102 111
-19 51 -19 60 -7 115 7 32 16 68 20 80 5 15 0 23 -20 32 -33 15 -32 16 -39
-10z"/>
<path d="M26 237 c-38 -27 2 -95 42 -71 24 16 28 55 6 71 -10 7 -21 13 -24 13
-3 0 -14 -6 -24 -13z"/>
<path d="M540 230 c-9 -17 -8 -26 5 -46 19 -29 38 -31 65 -4 28 28 13 64 -28
68 -23 2 -34 -2 -42 -18z"/>
</g>
</svg>
